{
	"asset":{
		"version":"2.0",
		"generator":"Created using the official Cinema 4D glTF Exporter 1.000x284978"
	},
	"scenes":[{
		"nodes":[0]
	}],
	"nodes":[{
		"name":"Portal",
		"translation":[-109.16453552246094,
		1.3937877416610718,
		-16.896146774291993],
		"rotation":[0.06977761536836624,
		-0.15939347445964814,
		-0.4504351019859314,
		0.8756900429725647],
		"scale":[1.0,
		1.0,
		1.0],
		"children":[1]
	},
	{
		"name":"Portal___Hole",
		"translation":[433.402099609375,
		324.78289794921877,
		-607.4337768554688],
		"rotation":[-0.3742661476135254,
		-0.26969099044799807,
		-0.38526076078414919,
		0.7992282509803772],
		"scale":[0.985004186630249,
		0.985004186630249,
		0.985004186630249],
		"mesh":0
	}],
	"meshes":[{
		"name":"Portal___Hole",
		"primitives":[{
			"attributes":{
				"POSITION":1,
				"NORMAL":2,
				"TEXCOORD_0":3
			},
			"indices":0,
			"material":0
		}]
	}],
	"textures":[{
		"sampler":0,
		"source":0
	}],
	"accessors":[{
		"bufferView":0,
		"min":[0],
		"type":"SCALAR",
		"count":96,
		"componentType":5123,
		"byteOffset":0,
		"max":[32]
	},
	{
		"bufferView":1,
		"min":[-127.87168884277344,
		-0.000005656392204400618,
		-127.87168884277344],
		"type":"VEC3",
		"count":33,
		"componentType":5126,
		"byteOffset":0,
		"max":[127.87168884277344,
		0.000005656392204400618,
		127.87168884277344]
	},
	{
		"bufferView":1,
		"min":[0.0,
		-1.0,
		0.0],
		"type":"VEC3",
		"count":33,
		"componentType":5126,
		"byteOffset":12,
		"max":[0.0,
		-1.0,
		0.0]
	},
	{
		"bufferView":1,
		"min":[0.0,
		0.0],
		"type":"VEC2",
		"count":33,
		"componentType":5126,
		"byteOffset":24,
		"max":[1.0,
		1.0]
	}],
	"bufferViews":[{
		"buffer":0,
		"byteOffset":0,
		"byteLength":192,
		"target":34963
	},
	{
		"buffer":0,
		"byteOffset":192,
		"byteLength":1056,
		"target":34962,
		"byteStride":32
	}],
	"buffers":[{
		"uri":"data:application/octet-stream;base64,",
		"byteLength":1248
	}],
	"images":[{
		"uri":"data:image/jpeg;base64,"
	}],
	"samplers":[{
		"wrapT":10497,
		"magFilter":9729,
		"minFilter":9729,
		"wrapS":10497
	}],
	"materials":[{
		"pbrMetallicRoughness":{
			"baseColorFactor":[1.0,
			1.0,
			1.0,
			1.0],
			"metallicFactor":1.0,
			"roughnessFactor":1.0
		},
		"emissiveTexture":{
			"index":0
		},
		"emissiveFactor":[1.0,
		1.0,
		1.0],
		"alphaMode":"OPAQUE",
		"doubleSided":false,
		"name":"Portal"
	}]
}