<svg width="60" height="60" viewBox="0 0 60 60" fill="none" xmlns="http://www.w3.org/2000/svg">
<g filter="url(#filter0_d_300_4554)">
<rect x="2" y="1" width="56" height="56" rx="2" fill="white"/>
<path d="M37.3034 22.3372C35.9344 21.711 34.4805 21.2547 32.9629 21C32.7719 21.329 32.5596 21.7747 32.411 22.1249C30.7969 21.8914 29.1944 21.8914 27.6025 22.1249C27.454 21.7747 27.2311 21.329 27.0507 21C25.5225 21.2547 24.0686 21.711 22.7091 22.3372C19.9605 26.3911 19.2177 30.3495 19.5891 34.2549C21.4144 35.5815 23.1761 36.388 24.907 36.9187C25.3315 36.3456 25.7136 35.73 26.0425 35.0827C25.4164 34.8492 24.8221 34.5627 24.249 34.2231C24.3976 34.117 24.5462 34.0003 24.6842 33.8835C28.1438 35.4648 31.8911 35.4648 35.3082 33.8835C35.4568 34.0003 35.5948 34.117 35.7434 34.2231C35.1703 34.5627 34.576 34.8492 33.9499 35.0827C34.2789 35.73 34.6609 36.3456 35.0854 36.9187C36.8152 36.388 38.5875 35.5815 40.4033 34.2549C40.8596 29.7341 39.6806 25.8075 37.3034 22.3372ZM26.5201 31.8459C25.4801 31.8459 24.6311 30.9014 24.6311 29.7447C24.6311 28.5879 25.4588 27.6434 26.5201 27.6434C27.5707 27.6434 28.4303 28.5879 28.4091 29.7447C28.4091 30.9014 27.5707 31.8459 26.5201 31.8459ZM33.4936 31.8459C32.4535 31.8459 31.6034 30.9014 31.6034 29.7447C31.6034 28.5879 32.4323 27.6434 33.4936 27.6434C34.5442 27.6434 35.4038 28.5879 35.3825 29.7447C35.3825 30.9014 34.5548 31.8459 33.4936 31.8459Z" fill="black"/>
<rect x="2.5" y="1.5" width="55" height="55" rx="1.5" stroke="white"/>
</g>
<defs>
<filter id="filter0_d_300_4554" x="0" y="0" width="60" height="60" filterUnits="userSpaceOnUse" color-interpolation-filters="sRGB">
<feFlood flood-opacity="0" result="BackgroundImageFix"/>
<feColorMatrix in="SourceAlpha" type="matrix" values="0 0 0 0 0 0 0 0 0 0 0 0 0 0 0 0 0 0 127 0" result="hardAlpha"/>
<feOffset dy="1"/>
<feGaussianBlur stdDeviation="1"/>
<feColorMatrix type="matrix" values="0 0 0 0 0.0627451 0 0 0 0 0.0941176 0 0 0 0 0.156863 0 0 0 0.05 0"/>
<feBlend mode="normal" in2="BackgroundImageFix" result="effect1_dropShadow_300_4554"/>
<feBlend mode="normal" in="SourceGraphic" in2="effect1_dropShadow_300_4554" result="shape"/>
</filter>
</defs>
</svg>
