<svg width="172" height="48" viewBox="0 0 172 48" fill="none" xmlns="http://www.w3.org/2000/svg">
<g filter="url(#filter0_d_300_4541)">
<g clip-path="url(#clip0_300_4541)">
<path d="M170 1H13.3364L2 14V45H158.5L170 34V1Z" fill="white"/>
<path d="M27.128 28.27C25.28 28.27 23.774 27.658 22.61 26.434C21.446 25.21 20.864 23.62 20.864 21.664C20.864 19.744 21.446 18.178 22.61 16.966C23.786 15.742 25.304 15.13 27.164 15.13C28.832 15.13 30.206 15.58 31.286 16.48C32.366 17.38 33.044 18.634 33.32 20.242H31.196C31.004 19.234 30.554 18.454 29.846 17.902C29.138 17.338 28.244 17.056 27.164 17.056C25.892 17.056 24.878 17.476 24.122 18.316C23.378 19.144 23.006 20.26 23.006 21.664C23.006 23.092 23.378 24.232 24.122 25.084C24.866 25.924 25.868 26.344 27.128 26.344C28.184 26.344 29.066 26.068 29.774 25.516C30.494 24.964 30.968 24.178 31.196 23.158H33.32C33.044 24.766 32.36 26.02 31.268 26.92C30.176 27.82 28.796 28.27 27.128 28.27ZM39.6575 28.27C38.2415 28.27 37.0835 27.796 36.1835 26.848C35.2835 25.888 34.8335 24.652 34.8335 23.14C34.8335 21.676 35.2775 20.482 36.1655 19.558C37.0655 18.634 38.2295 18.172 39.6575 18.172C41.0855 18.172 42.2495 18.634 43.1495 19.558C44.0495 20.482 44.4995 21.676 44.4995 23.14C44.4995 24.652 44.0495 25.888 43.1495 26.848C42.2495 27.796 41.0855 28.27 39.6575 28.27ZM39.6575 26.47C40.4975 26.47 41.1755 26.164 41.6915 25.552C42.2195 24.928 42.4835 24.124 42.4835 23.14C42.4835 22.204 42.2195 21.442 41.6915 20.854C41.1755 20.266 40.4975 19.972 39.6575 19.972C38.8415 19.972 38.1695 20.266 37.6415 20.854C37.1255 21.442 36.8675 22.204 36.8675 23.14C36.8675 24.124 37.1255 24.928 37.6415 25.552C38.1695 26.164 38.8415 26.47 39.6575 26.47ZM51.0763 18.172C52.1443 18.172 53.0143 18.49 53.6863 19.126C54.3583 19.762 54.6943 20.59 54.6943 21.61V28H52.6783V21.664C52.6783 21.172 52.4983 20.77 52.1383 20.458C51.7903 20.134 51.3343 19.972 50.7703 19.972C50.0503 19.972 49.4623 20.176 49.0063 20.584C48.5623 20.98 48.3283 21.496 48.3043 22.132V28H46.2703V18.46H47.8903L48.0703 19.792C48.6823 18.712 49.6843 18.172 51.0763 18.172ZM61.588 18.172C62.656 18.172 63.526 18.49 64.198 19.126C64.87 19.762 65.206 20.59 65.206 21.61V28H63.19V21.664C63.19 21.172 63.01 20.77 62.65 20.458C62.302 20.134 61.846 19.972 61.282 19.972C60.562 19.972 59.974 20.176 59.518 20.584C59.074 20.98 58.84 21.496 58.816 22.132V28H56.782V18.46H58.402L58.582 19.792C59.194 18.712 60.196 18.172 61.588 18.172ZM76.0777 22.888V23.86H68.8957C69.0037 24.688 69.3097 25.33 69.8137 25.786C70.3177 26.242 70.9477 26.47 71.7037 26.47C72.9157 26.47 73.6957 25.984 74.0437 25.012H76.0417C75.8137 26.032 75.3157 26.83 74.5477 27.406C73.7917 27.982 72.8437 28.27 71.7037 28.27C70.2277 28.27 69.0457 27.802 68.1577 26.866C67.2697 25.918 66.8257 24.718 66.8257 23.266C66.8257 21.682 67.2697 20.44 68.1577 19.54C69.0577 18.628 70.1917 18.172 71.5597 18.172C72.9037 18.172 73.9837 18.598 74.7997 19.45C75.6277 20.302 76.0537 21.448 76.0777 22.888ZM71.5597 19.972C70.9117 19.972 70.3597 20.164 69.9037 20.548C69.4597 20.92 69.1537 21.442 68.9857 22.114H73.9717C73.8397 21.454 73.5637 20.932 73.1437 20.548C72.7237 20.164 72.1957 19.972 71.5597 19.972ZM82.3046 28.27C80.8526 28.27 79.6646 27.796 78.7406 26.848C77.8286 25.9 77.3726 24.676 77.3726 23.176C77.3726 21.7 77.8226 20.5 78.7226 19.576C79.6226 18.64 80.7866 18.172 82.2146 18.172C83.4866 18.172 84.5366 18.532 85.3646 19.252C86.1926 19.96 86.6726 20.92 86.8046 22.132H84.8066C84.6866 21.448 84.3926 20.92 83.9246 20.548C83.4566 20.164 82.8866 19.972 82.2146 19.972C81.3986 19.972 80.7266 20.272 80.1986 20.872C79.6826 21.472 79.4246 22.24 79.4246 23.176C79.4246 24.136 79.6946 24.928 80.2346 25.552C80.7866 26.164 81.4946 26.47 82.3586 26.47C83.7626 26.47 84.5786 25.738 84.8066 24.274H86.8046C86.6486 25.546 86.1806 26.53 85.4006 27.226C84.6326 27.922 83.6006 28.27 82.3046 28.27ZM93.6594 20.35H91.2294V24.922C91.2294 25.738 91.6374 26.146 92.4534 26.146H93.4974V28H92.4534C91.3974 28 90.5934 27.736 90.0414 27.208C89.4894 26.68 89.2134 25.918 89.2134 24.922V20.35H87.5214V18.46H89.2134V16.21H91.2294V18.46H93.6594V20.35ZM113.2 15.4H115.27L111.706 28H109.456L106.864 18.64L104.29 28H102.04L98.4759 15.4H100.546L103.3 25.12L105.964 15.4H107.746L110.446 25.138L113.2 15.4ZM124.539 26.146H125.025V28H124.179C123.039 28 122.349 27.652 122.109 26.956C121.461 27.772 120.399 28.18 118.923 28.18C117.867 28.18 117.003 27.922 116.331 27.406C115.671 26.89 115.341 26.206 115.341 25.354C115.341 24.598 115.563 23.992 116.007 23.536C116.463 23.08 117.009 22.78 117.645 22.636C118.293 22.48 118.935 22.372 119.571 22.312C120.219 22.24 120.765 22.162 121.209 22.078C121.665 21.994 121.893 21.844 121.893 21.628C121.893 21.076 121.707 20.644 121.335 20.332C120.975 20.02 120.465 19.864 119.805 19.864C119.169 19.864 118.641 20.002 118.221 20.278C117.813 20.542 117.591 20.89 117.555 21.322H115.575C115.671 20.362 116.109 19.6 116.889 19.036C117.669 18.46 118.641 18.172 119.805 18.172C121.089 18.172 122.091 18.508 122.811 19.18C123.531 19.84 123.891 20.77 123.891 21.97V25.462C123.891 25.918 124.107 26.146 124.539 26.146ZM119.319 26.542C120.123 26.542 120.753 26.356 121.209 25.984C121.665 25.612 121.893 25.12 121.893 24.508V23.464C121.785 23.608 121.479 23.71 120.975 23.77C120.471 23.83 119.955 23.872 119.427 23.896C118.911 23.908 118.443 24.028 118.023 24.256C117.603 24.484 117.393 24.82 117.393 25.264C117.393 25.672 117.567 25.99 117.915 26.218C118.263 26.434 118.731 26.542 119.319 26.542ZM126.552 28V14.5H128.604V28H126.552ZM131.052 28V14.5H133.104V28H131.052ZM144.228 22.888V23.86H137.046C137.154 24.688 137.46 25.33 137.964 25.786C138.468 26.242 139.098 26.47 139.854 26.47C141.066 26.47 141.846 25.984 142.194 25.012H144.192C143.964 26.032 143.466 26.83 142.698 27.406C141.942 27.982 140.994 28.27 139.854 28.27C138.378 28.27 137.196 27.802 136.308 26.866C135.42 25.918 134.976 24.718 134.976 23.266C134.976 21.682 135.42 20.44 136.308 19.54C137.208 18.628 138.342 18.172 139.71 18.172C141.054 18.172 142.134 18.598 142.95 19.45C143.778 20.302 144.204 21.448 144.228 22.888ZM139.71 19.972C139.062 19.972 138.51 20.164 138.054 20.548C137.61 20.92 137.304 21.442 137.136 22.114H142.122C141.99 21.454 141.714 20.932 141.294 20.548C140.874 20.164 140.346 19.972 139.71 19.972ZM151.175 20.35H148.745V24.922C148.745 25.738 149.153 26.146 149.969 26.146H151.013V28H149.969C148.913 28 148.109 27.736 147.557 27.208C147.005 26.68 146.729 25.918 146.729 24.922V20.35H145.037V18.46H146.729V16.21H148.745V18.46H151.175V20.35Z" fill="black"/>
</g>
</g>
<defs>
<filter id="filter0_d_300_4541" x="0" y="0" width="172" height="48" filterUnits="userSpaceOnUse" color-interpolation-filters="sRGB">
<feFlood flood-opacity="0" result="BackgroundImageFix"/>
<feColorMatrix in="SourceAlpha" type="matrix" values="0 0 0 0 0 0 0 0 0 0 0 0 0 0 0 0 0 0 127 0" result="hardAlpha"/>
<feOffset dy="1"/>
<feGaussianBlur stdDeviation="1"/>
<feColorMatrix type="matrix" values="0 0 0 0 0.0627451 0 0 0 0 0.0941176 0 0 0 0 0.156863 0 0 0 0.05 0"/>
<feBlend mode="normal" in2="BackgroundImageFix" result="effect1_dropShadow_300_4541"/>
<feBlend mode="normal" in="SourceGraphic" in2="effect1_dropShadow_300_4541" result="shape"/>
</filter>
<clipPath id="clip0_300_4541">
<rect x="2" y="1" width="168" height="44" rx="2" fill="white"/>
</clipPath>
</defs>
</svg>
