<svg width="60" height="60" viewBox="0 0 60 60" fill="none" xmlns="http://www.w3.org/2000/svg">
<g clip-path="url(#clip0_300_4550)" filter="url(#filter0_d_300_4550)">
<path d="M58 55V3C58 1.89543 57.1046 1 56 1H11.7952C11.2845 1 10.7932 1.19534 10.4219 1.54597L2.62675 8.90807C2.22671 9.28589 2 9.81183 2 10.3621V55C2 56.1046 2.89543 57 4 57H56C57.1046 57 58 56.1046 58 55Z" fill="white"/>
<path d="M23.3237 23.957H25.3237V33.957H23.3237V23.957ZM19.3237 26.957H21.3237V30.957H19.3237V26.957ZM27.3237 18.957H29.3237V36.957H27.3237V18.957ZM31.3237 20.957H33.3237V38.957H31.3237V20.957ZM35.3237 23.957H37.3237V33.957H35.3237V23.957ZM39.3237 26.957H41.3237V30.957H39.3237V26.957Z" fill="black"/>
</g>
<defs>
<filter id="filter0_d_300_4550" x="0" y="0" width="60" height="60" filterUnits="userSpaceOnUse" color-interpolation-filters="sRGB">
<feFlood flood-opacity="0" result="BackgroundImageFix"/>
<feColorMatrix in="SourceAlpha" type="matrix" values="0 0 0 0 0 0 0 0 0 0 0 0 0 0 0 0 0 0 127 0" result="hardAlpha"/>
<feOffset dy="1"/>
<feGaussianBlur stdDeviation="1"/>
<feColorMatrix type="matrix" values="0 0 0 0 0.0627451 0 0 0 0 0.0941176 0 0 0 0 0.156863 0 0 0 0.05 0"/>
<feBlend mode="normal" in2="BackgroundImageFix" result="effect1_dropShadow_300_4550"/>
<feBlend mode="normal" in="SourceGraphic" in2="effect1_dropShadow_300_4550" result="shape"/>
</filter>
<clipPath id="clip0_300_4550">
<rect width="56" height="56" fill="white" transform="translate(2 1)"/>
</clipPath>
</defs>
</svg>
