<svg width="34" height="34" viewBox="0 0 34 34" fill="none" xmlns="http://www.w3.org/2000/svg">
<path d="M22 11.6665H22.0167M22 21.6665C27.5228 21.6665 32 17.1894 32 11.6665C32 6.14366 27.5228 1.6665 22 1.6665C16.4772 1.6665 12 6.14366 12 11.6665C12 12.1226 12.0305 12.5716 12.0897 13.0116C12.187 13.7351 12.2356 14.0969 12.2029 14.3258C12.1688 14.5643 12.1253 14.6927 12.0078 14.903C11.895 15.1048 11.6962 15.3037 11.2986 15.7013L2.78105 24.2188C2.4928 24.507 2.34867 24.6512 2.2456 24.8194C2.15422 24.9685 2.08688 25.1311 2.04605 25.3011C2 25.4929 2 25.6968 2 26.1044V28.9998C2 29.9333 2 30.4 2.18166 30.7565C2.34144 31.0701 2.59641 31.3251 2.91002 31.4848C3.26654 31.6665 3.73325 31.6665 4.66667 31.6665H7.5621C7.96975 31.6665 8.17357 31.6665 8.36539 31.6205C8.53545 31.5796 8.69802 31.5123 8.84714 31.4209C9.01534 31.3178 9.15946 31.1737 9.44771 30.8855L17.9652 22.3679C18.3628 21.9703 18.5617 21.7715 18.7635 21.6587C18.9738 21.5412 19.1022 21.4977 19.3407 21.4636C19.5696 21.4309 19.9314 21.4795 20.6549 21.5768C21.0949 21.636 21.5439 21.6665 22 21.6665Z" stroke="#FAC515" stroke-width="2.85714" stroke-linecap="round" stroke-linejoin="round"/>
</svg>
