<svg width="38" height="36" viewBox="0 0 38 36" fill="none" xmlns="http://www.w3.org/2000/svg">
<path d="M9.00022 8.66667L16.5002 16.1667M9.00022 8.66667H4.00022L2.33356 3.66667L4.00022 2L9.00022 3.66667V8.66667ZM31.0985 3.23502L26.7192 7.61438C26.0591 8.27441 25.7291 8.60442 25.6055 8.98497C25.4967 9.31971 25.4967 9.68029 25.6055 10.015C25.7291 10.3956 26.0591 10.7256 26.7192 11.3856L27.1146 11.781C27.7746 12.4411 28.1046 12.7711 28.4852 12.8947C28.8199 13.0035 29.1805 13.0035 29.5153 12.8947C29.8958 12.7711 30.2258 12.4411 30.8858 11.7811L34.9824 7.68453C35.4236 8.75814 35.6669 9.93399 35.6669 11.1667C35.6669 16.2293 31.5628 20.3333 26.5002 20.3333C25.8899 20.3333 25.2935 20.2737 24.7165 20.1599C23.9062 20.0001 23.5011 19.9202 23.2555 19.9447C22.9944 19.9707 22.8658 20.0098 22.6344 20.1336C22.4168 20.2501 22.1985 20.4684 21.7619 20.905L9.83356 32.8333C8.45285 34.214 6.21427 34.214 4.83356 32.8333C3.45285 31.4526 3.45285 29.214 4.83356 27.8333L16.7619 15.905C17.1985 15.4684 17.4168 15.2501 17.5333 15.0325C17.6571 14.8011 17.6962 14.6725 17.7222 14.4114C17.7467 14.1658 17.6668 13.7606 17.507 12.9504C17.3932 12.3734 17.3336 11.777 17.3336 11.1667C17.3336 6.10406 21.4376 2 26.5002 2C28.1761 2 29.7469 2.4497 31.0985 3.23502ZM19.0003 23.6666L28.1669 32.8332C29.5476 34.2139 31.7862 34.2139 33.1669 32.8332C34.5476 31.4524 34.5476 29.2139 33.1668 27.8332L25.6257 20.2922C25.0919 20.2416 24.5714 20.1453 24.0682 20.0072C23.4198 19.8292 22.7085 19.9584 22.233 20.4339L19.0003 23.6666Z" stroke="#FAC515" stroke-width="2.85714" stroke-linecap="round" stroke-linejoin="round"/>
</svg>
