<svg width="52" height="53" viewBox="0 0 52 53" fill="none" xmlns="http://www.w3.org/2000/svg">
<g filter="url(#filter0_d_522_703)">
<path d="M16 18.2665C16 17.7065 16 17.4264 16.109 17.2125C16.2049 17.0244 16.3578 16.8714 16.546 16.7755C16.7599 16.6665 17.0399 16.6665 17.6 16.6665H34.4C34.9601 16.6665 35.2401 16.6665 35.454 16.7755C35.6422 16.8714 35.7951 17.0244 35.891 17.2125C36 17.4264 36 17.7065 36 18.2665V18.9359C36 19.2047 36 19.3391 35.9672 19.4641C35.938 19.5748 35.8901 19.6797 35.8255 19.7743C35.7526 19.8809 35.651 19.969 35.4479 20.145L29.0521 25.688C28.849 25.8641 28.7474 25.9521 28.6745 26.0587C28.6099 26.1533 28.562 26.2582 28.5328 26.3689C28.5 26.4939 28.5 26.6283 28.5 26.8971V32.1249C28.5 32.3204 28.5 32.4182 28.4685 32.5028C28.4406 32.5775 28.3953 32.6444 28.3363 32.698C28.2695 32.7587 28.1787 32.795 27.9971 32.8677L24.5971 34.2277C24.2296 34.3747 24.0458 34.4482 23.8983 34.4175C23.7693 34.3907 23.6561 34.3141 23.5833 34.2043C23.5 34.0787 23.5 33.8807 23.5 33.4849V26.8971C23.5 26.6283 23.5 26.4939 23.4672 26.3689C23.438 26.2582 23.3901 26.1533 23.3255 26.0587C23.2526 25.9521 23.151 25.8641 22.9479 25.688L16.5521 20.145C16.349 19.969 16.2474 19.8809 16.1745 19.7743C16.1099 19.6797 16.062 19.5748 16.0328 19.4641C16 19.3391 16 19.2047 16 18.9359V18.2665Z" stroke="#FCFCFD" stroke-width="2" stroke-linecap="round" stroke-linejoin="round"/>
<rect x="2.5" y="2.1665" width="47" height="47" rx="9.5" stroke="white"/>
</g>
<defs>
<filter id="filter0_d_522_703" x="0" y="0.666504" width="52" height="52" filterUnits="userSpaceOnUse" color-interpolation-filters="sRGB">
<feFlood flood-opacity="0" result="BackgroundImageFix"/>
<feColorMatrix in="SourceAlpha" type="matrix" values="0 0 0 0 0 0 0 0 0 0 0 0 0 0 0 0 0 0 127 0" result="hardAlpha"/>
<feOffset dy="1"/>
<feGaussianBlur stdDeviation="1"/>
<feColorMatrix type="matrix" values="0 0 0 0 0.0627451 0 0 0 0 0.0941176 0 0 0 0 0.156863 0 0 0 0.05 0"/>
<feBlend mode="normal" in2="BackgroundImageFix" result="effect1_dropShadow_522_703"/>
<feBlend mode="normal" in="SourceGraphic" in2="effect1_dropShadow_522_703" result="shape"/>
</filter>
</defs>
</svg>
