<svg width="38" height="37" viewBox="0 0 38 37" fill="none" xmlns="http://www.w3.org/2000/svg">
<path d="M19.0002 2C23.169 6.56392 25.5382 12.4867 25.6669 18.6667C25.5382 24.8466 23.169 30.7694 19.0002 35.3333M19.0002 2C14.8314 6.56392 12.4623 12.4867 12.3336 18.6667C12.4623 24.8466 14.8314 30.7694 19.0002 35.3333M19.0002 2C9.79549 2 2.33357 9.46192 2.33357 18.6667C2.33357 27.8714 9.79549 35.3333 19.0002 35.3333M19.0002 2C28.205 2 35.6669 9.46192 35.6669 18.6667C35.6669 27.8714 28.205 35.3333 19.0002 35.3333M3.16694 13.6667H34.8336M3.16691 23.6667H34.8336" stroke="#FAC515" stroke-width="2.85714" stroke-linecap="round" stroke-linejoin="round"/>
</svg>
