<svg width="20" height="20" viewBox="0 0 20 20" fill="none" xmlns="http://www.w3.org/2000/svg">
<g clip-path="url(#clip0_522_693)">
<path d="M10 18.3333C14.6024 18.3333 18.3334 14.6023 18.3334 9.99996C18.3334 5.39759 14.6024 1.66663 10 1.66663C5.39765 1.66663 1.66669 5.39759 1.66669 9.99996C1.66669 14.6023 5.39765 18.3333 10 18.3333Z" stroke="white" stroke-width="1.66667" stroke-linecap="round" stroke-linejoin="round"/>
<path d="M7.91669 7.47107C7.91669 7.07333 7.91669 6.87446 7.99981 6.76344C8.07224 6.66669 8.18312 6.60616 8.30367 6.59755C8.44201 6.58767 8.60929 6.6952 8.94386 6.91028L12.8777 9.43917C13.168 9.62581 13.3132 9.71913 13.3633 9.83778C13.4071 9.94146 13.4071 10.0585 13.3633 10.1621C13.3132 10.2808 13.168 10.3741 12.8777 10.5607L8.94386 13.0896C8.60929 13.3047 8.44201 13.4123 8.30367 13.4024C8.18312 13.3938 8.07224 13.3332 7.99981 13.2365C7.91669 13.1255 7.91669 12.9266 7.91669 12.5288V7.47107Z" stroke="white" stroke-width="1.66667" stroke-linecap="round" stroke-linejoin="round"/>
</g>
<defs>
<clipPath id="clip0_522_693">
<rect width="20" height="20" fill="white"/>
</clipPath>
</defs>
</svg>
