<svg width="41" height="41" viewBox="0 0 41 41" fill="none" xmlns="http://www.w3.org/2000/svg">
<path d="M24.4757 8.999L28.82 4.65467C29.4708 4.00378 30.5262 4.00378 31.177 4.65467L38.2482 11.7257C38.899 12.3766 38.899 13.4319 38.2482 14.0827L31.9512 20.3797V35.6657C31.9512 36.5862 31.205 37.3324 30.2845 37.3324H10.2845C9.36404 37.3324 8.61784 36.5862 8.61784 35.6657V20.3797L2.32089 14.0827C1.67001 13.4319 1.67001 12.3766 2.32089 11.7257L9.39196 4.65467C10.0428 4.00378 11.0981 4.00378 11.749 4.65467L16.0933 8.999H24.4757ZM25.8563 12.3323H14.7126L10.5705 8.1902L5.85642 12.9042L11.9512 18.999V33.999H28.6178V18.999L34.7127 12.9042L29.9985 8.1902L25.8563 12.3323Z" fill="#FAC515"/>
</svg>
