<svg width="1121" height="232" viewBox="0 0 1121 232" fill="none" xmlns="http://www.w3.org/2000/svg">
<path d="M608.439 185L591.939 230.9H480.939V30.2L527.739 20.3V185H608.439ZM664.15 228.2C652.15 224 644.05 221.2 639.85 219.8C628.25 215.6 622.45 212.8 622.45 211.4L679.45 43.4C682.25 35 683.95 30.7 684.55 30.5C689.55 29.1 694.55 27.6 699.55 26L728.05 18.2C729.45 18.2 731.35 21.2 733.75 27.2C734.15 28.4 735.85 33 738.85 41L803.95 211.4C804.35 212.6 803.25 213.6 800.65 214.4C795.05 216.2 790.05 218.3 785.65 220.7C783.25 222.1 781.35 223 779.95 223.4C771.95 226.6 766.95 228.2 764.95 228.2C763.95 225.6 763.25 223.6 762.85 222.2C759.25 211.8 756.85 205.5 755.65 203.3C754.45 200.9 752.45 195.3 749.65 186.5C748.05 181.5 746.35 179 744.55 179H684.25C682.05 179 680.45 180.3 679.45 182.9C678.65 185.5 676.45 192 672.85 202.4L664.15 228.2ZM712.45 90.2L695.95 136.4H730.45V135.2C729.65 133 727.75 128.2 724.75 120.8C720.35 109.6 716.25 99.4 712.45 90.2ZM963.862 98.9C963.862 100.7 955.962 109 940.162 123.8C932.762 130.8 918.262 144.1 896.662 163.7C880.862 178.1 872.962 185.6 872.962 186.2V220.4C872.962 221 865.862 222.5 851.662 224.9C847.062 225.7 839.962 226.9 830.362 228.5L829.762 31.7C831.562 30.1 835.762 28.1 842.362 25.7C848.962 23.1 856.562 20.7 865.162 18.5C866.162 18.3 867.562 17.9 869.362 17.3C870.162 17.1 870.862 17 871.462 17C873.062 17 874.462 17.5 875.662 18.5C889.262 29.5 902.862 40.4 916.462 51.2C931.462 63.4 942.662 73 950.062 80C959.262 88.8 963.862 95.1 963.862 98.9ZM904.462 98.3C904.462 95.5 900.362 90.3 892.162 82.7C883.962 75.1 878.862 71.3 876.862 71.3H874.162V124.1H877.462C883.462 119.1 887.962 115.4 890.962 113C899.962 105.4 904.462 100.5 904.462 98.3ZM1120.77 37.1L1063.77 77.6C1062.57 78.4 1061.67 79 1061.07 79.4C1059.27 81 1058.37 82.5 1058.37 83.9C1058.37 85.5 1059.17 86.8 1060.77 87.8L1112.97 137C1113.97 138.2 1114.67 139.1 1115.07 139.7C1116.47 141.9 1117.17 144.2 1117.17 146.6C1117.17 148.8 1116.47 151.1 1115.07 153.5C1113.87 155.7 1111.87 158 1109.07 160.4L1015.47 231.8L980.066 194.9L1043.67 149C1044.67 148.4 1045.37 147.9 1045.77 147.5C1047.17 146.3 1047.87 145 1047.87 143.6C1047.87 141.6 1046.97 139.7 1045.17 137.9L995.066 91.1C992.066 87.5 990.566 84 990.566 80.6C990.566 77 992.066 73.6 995.066 70.4C996.066 69.4 997.566 68.2 999.566 66.8L1089.57 0.19999L1120.77 37.1Z" fill="white"/>
<path d="M127.677 185L132.383 186.691L134.788 180H127.677V185ZM111.177 230.9V235.9H114.693L115.883 232.591L111.177 230.9ZM0.177344 230.9H-4.82266V235.9H0.177344V230.9ZM0.177344 30.2L-0.85745 25.3083L-4.82266 26.147V30.2H0.177344ZM46.9773 20.3H51.9773V14.1316L45.9426 15.4082L46.9773 20.3ZM46.9773 185H41.9773V190H46.9773V185ZM122.972 183.309L106.472 229.209L115.883 232.591L132.383 186.691L122.972 183.309ZM111.177 225.9H0.177344V235.9H111.177V225.9ZM5.17734 230.9V30.2H-4.82266V230.9H5.17734ZM1.21214 35.0917L48.0121 25.1917L45.9426 15.4082L-0.85745 25.3083L1.21214 35.0917ZM41.9773 20.3V185H51.9773V20.3H41.9773ZM46.9773 190H127.677V180H46.9773V190ZM183.388 228.2L181.737 232.919L186.51 234.59L188.126 229.798L183.388 228.2ZM159.088 219.8L157.386 224.501L157.446 224.523L157.507 224.543L159.088 219.8ZM141.688 211.4L136.953 209.794L136.688 210.575V211.4H141.688ZM198.688 43.4L203.423 45.0065L203.427 44.9938L203.432 44.9811L198.688 43.4ZM203.788 30.5L202.44 25.6852L202.323 25.718L202.207 25.7566L203.788 30.5ZM218.788 26L217.468 21.1774L217.366 21.2054L217.264 21.2379L218.788 26ZM247.288 18.2V13.2H246.616L245.968 13.3773L247.288 18.2ZM252.988 27.2L257.732 25.6189L257.685 25.4795L257.631 25.343L252.988 27.2ZM258.088 41L253.407 42.7556L253.412 42.77L253.418 42.7844L258.088 41ZM323.188 211.4L327.932 209.819L327.898 209.716L327.859 209.616L323.188 211.4ZM319.888 214.4L318.418 209.621L318.388 209.63L318.358 209.64L319.888 214.4ZM304.888 220.7L302.494 216.311L302.431 216.345L302.369 216.381L304.888 220.7ZM299.188 223.4L297.815 218.592L297.569 218.663L297.331 218.758L299.188 223.4ZM284.188 228.2L279.522 229.995L280.754 233.2H284.188V228.2ZM282.088 222.2L286.896 220.826L286.858 220.694L286.813 220.564L282.088 222.2ZM274.888 203.3L270.416 205.536L270.456 205.616L270.499 205.694L274.888 203.3ZM268.888 186.5L273.653 184.984L273.65 184.976L268.888 186.5ZM198.688 182.9L194.022 181.105L193.96 181.265L193.909 181.43L198.688 182.9ZM192.088 202.4L187.363 200.764L187.357 200.783L187.35 200.802L192.088 202.4ZM231.688 90.2L236.31 88.2912L231.349 76.2825L226.98 88.5183L231.688 90.2ZM215.188 136.4L210.48 134.718L208.093 141.4H215.188V136.4ZM249.688 136.4V141.4H254.688V136.4H249.688ZM249.688 135.2H254.688V134.319L254.387 133.491L249.688 135.2ZM243.988 120.8L239.335 122.628L239.344 122.653L239.355 122.679L243.988 120.8ZM185.04 223.481C173.045 219.282 164.91 216.47 160.669 215.057L157.507 224.543C161.666 225.93 169.732 228.718 181.737 232.919L185.04 223.481ZM160.79 215.099C155.034 213.014 150.877 211.334 148.212 210.047C146.854 209.391 146.077 208.929 145.708 208.663C145.515 208.523 145.615 208.565 145.81 208.801C145.941 208.958 146.688 209.877 146.688 211.4H136.688C136.688 213.273 137.617 214.586 138.11 215.181C138.668 215.854 139.311 216.377 139.843 216.762C140.925 217.546 142.323 218.309 143.865 219.053C147 220.566 151.542 222.386 157.386 224.501L160.79 215.099ZM146.423 213.006L203.423 45.0065L193.953 41.7935L136.953 209.794L146.423 213.006ZM203.432 44.9811C204.824 40.8048 205.914 37.7335 206.713 35.7133C207.119 34.6869 207.406 34.0428 207.584 33.6943C207.68 33.5067 207.678 33.537 207.58 33.6734C207.532 33.7409 207.385 33.9417 207.137 34.1815C206.941 34.3706 206.348 34.9173 205.369 35.2434L202.207 25.7566C201.154 26.1077 200.477 26.7114 200.189 26.9896C199.848 27.3185 199.601 27.6403 199.443 27.861C199.127 28.3036 198.871 28.7683 198.68 29.1432C198.283 29.9196 197.858 30.9131 197.413 32.0367C196.512 34.3165 195.353 37.5952 193.945 41.8189L203.432 44.9811ZM205.136 35.3148C210.196 33.8981 215.255 32.3805 220.312 30.7621L217.264 21.2379C212.322 22.8194 207.381 24.3018 202.44 25.6852L205.136 35.3148ZM220.108 30.8226L248.608 23.0226L245.968 13.3773L217.468 21.1774L220.108 30.8226ZM247.288 23.2C246.552 23.2 245.981 23.0001 245.63 22.8274C245.293 22.6614 245.108 22.4978 245.069 22.4622C245.014 22.4122 245.18 22.5584 245.539 23.1253C246.243 24.2362 247.184 26.151 248.346 29.0569L257.631 25.343C256.393 22.249 255.184 19.6637 253.987 17.7747C253.396 16.8415 252.675 15.8628 251.795 15.0628C250.981 14.3227 249.44 13.2 247.288 13.2V23.2ZM248.245 28.7811C248.683 30.0943 250.429 34.8154 253.407 42.7556L262.77 39.2444C259.747 31.1846 258.094 26.7057 257.732 25.6189L248.245 28.7811ZM253.418 42.7844L318.518 213.184L327.859 209.616L262.759 39.2156L253.418 42.7844ZM318.445 212.981C318.244 212.378 318.178 211.577 318.442 210.747C318.688 209.975 319.107 209.525 319.3 209.35C319.483 209.184 319.555 209.176 319.37 209.266C319.199 209.35 318.895 209.474 318.418 209.621L321.359 219.179C322.872 218.713 324.651 218 326.027 216.75C326.769 216.075 327.551 215.1 327.972 213.779C328.411 212.398 328.333 211.022 327.932 209.819L318.445 212.981ZM318.358 209.64C312.509 211.52 307.212 213.737 302.494 216.311L307.283 225.089C311.364 222.863 316.067 220.88 321.418 219.16L318.358 209.64ZM302.369 216.381C300.066 217.724 298.6 218.368 297.815 218.592L300.562 228.208C302.576 227.632 304.91 226.476 307.408 225.019L302.369 216.381ZM297.331 218.758C293.381 220.338 290.254 221.489 287.914 222.238C286.744 222.612 285.827 222.868 285.137 223.026C284.387 223.197 284.129 223.2 284.188 223.2V233.2C286.071 233.2 288.519 232.544 290.962 231.762C293.623 230.911 296.995 229.662 301.045 228.042L297.331 218.758ZM288.855 226.405C287.87 223.843 287.234 222.009 286.896 220.826L277.281 223.574C277.743 225.191 278.507 227.357 279.522 229.995L288.855 226.405ZM286.813 220.564C283.273 210.337 280.725 203.559 279.278 200.906L270.499 205.694C271.451 207.441 273.704 213.263 277.363 223.836L286.813 220.564ZM279.36 201.064C278.369 199.082 276.485 193.884 273.653 184.984L264.124 188.016C266.892 196.715 269.007 202.718 270.416 205.536L279.36 201.064ZM273.65 184.976C272.795 182.302 271.795 179.898 270.548 178.063C269.403 176.379 267.221 174 263.788 174V184C263.006 184 262.455 183.71 262.213 183.537C262.018 183.398 262.061 183.367 262.279 183.687C262.731 184.352 263.382 185.698 264.126 188.024L273.65 184.976ZM263.788 174H203.488V184H263.788V174ZM203.488 174C201.323 174 199.239 174.67 197.485 176.094C195.81 177.456 194.729 179.265 194.022 181.105L203.355 184.695C203.647 183.935 203.867 183.794 203.791 183.856C203.746 183.892 203.667 183.941 203.569 183.975C203.476 184.007 203.436 184 203.488 184V174ZM193.909 181.43C193.141 183.928 190.974 190.333 187.363 200.764L196.813 204.036C200.402 193.667 202.636 187.072 203.467 184.37L193.909 181.43ZM187.35 200.802L178.65 226.602L188.126 229.798L196.826 203.998L187.35 200.802ZM226.98 88.5183L210.48 134.718L219.897 138.082L236.397 91.8817L226.98 88.5183ZM215.188 141.4H249.688V131.4H215.188V141.4ZM254.688 136.4V135.2H244.688V136.4H254.688ZM254.387 133.491C253.55 131.189 251.613 126.299 248.622 118.921L239.355 122.679C242.364 130.101 244.227 134.811 244.989 136.909L254.387 133.491ZM248.642 118.972C244.234 107.75 240.123 97.5228 236.31 88.2912L227.067 92.1088C230.854 101.277 234.943 111.45 239.335 122.628L248.642 118.972ZM466.3 42.2L468.767 46.5492L471.3 45.1124V42.2H466.3ZM436.6 59.3L439.114 63.6221L439.133 63.6108L439.153 63.5993L436.6 59.3ZM413.2 85.4L409.5 88.7634L409.521 88.7858L409.541 88.808L413.2 85.4ZM439 113.6L435.204 116.854L435.329 117L435.464 117.136L439 113.6ZM439 118.4L442.81 121.638L442.999 121.416L443.16 121.173L439 118.4ZM417.7 140.3L421.184 143.886L421.193 143.877L421.202 143.868L417.7 140.3ZM429.4 176.6L432.664 172.812L432.652 172.802L432.641 172.793L429.4 176.6ZM452.2 195.5L449.516 199.718L449.658 199.809L449.806 199.889L452.2 195.5ZM456.7 198.2L453.7 202.2L453.776 202.257L453.854 202.311L456.7 198.2ZM460.6 202.1L463.732 205.998L465.6 204.496V202.1H460.6ZM427 229.1L423.845 232.979L426.981 235.53L430.132 232.998L427 229.1ZM341.8 159.8L338.264 163.336L338.446 163.517L338.645 163.679L341.8 159.8ZM341.8 152.9L338.519 149.127L338.388 149.241L338.264 149.364L341.8 152.9ZM368.8 128.6L372.209 132.258L372.231 132.238L372.252 132.217L368.8 128.6ZM369.1 98L372.891 94.7398L372.877 94.7236L372.863 94.7075L369.1 98ZM341.8 66.8L345.563 63.5075L345.453 63.3822L345.336 63.2645L341.8 66.8ZM341.8 61.7L339.291 57.3748L339.036 57.5229L338.8 57.7L341.8 61.7ZM401.8 26.9L399.307 22.5659L399.299 22.5703L399.291 22.5748L401.8 26.9ZM437.8 7.39999L441.531 4.07191L440.04 2.39999H437.8V7.39999ZM452.2 23.9L448.359 27.1009L448.379 27.1247L448.399 27.1483L452.2 23.9ZM463.833 37.8508C450.428 45.4538 440.492 51.1741 434.047 55.0007L439.153 63.5993C445.508 59.8259 455.372 54.1462 468.767 46.5492L463.833 37.8508ZM434.086 54.9779C424.267 60.6892 416.827 65.1912 411.816 68.4636C409.327 70.0894 407.334 71.478 405.924 72.6004C405.234 73.1492 404.547 73.7414 403.988 74.3464C403.712 74.6451 403.353 75.0675 403.037 75.5909C402.776 76.0211 402.2 77.0693 402.2 78.5H412.2C412.2 79.7557 411.7 80.5899 411.593 80.7669C411.429 81.0372 411.301 81.1674 411.331 81.1349C411.384 81.0773 411.616 80.8508 412.151 80.4246C413.191 79.597 414.873 78.4106 417.284 76.8363C422.073 73.7088 429.333 69.3108 439.114 63.6221L434.086 54.9779ZM402.2 78.5C402.2 79.4048 402.449 80.0814 402.528 80.2902C402.639 80.585 402.756 80.8126 402.825 80.9397C402.964 81.1974 403.102 81.4029 403.178 81.5121C403.341 81.7485 403.521 81.98 403.671 82.1672C403.986 82.5611 404.414 83.0664 404.927 83.6559C405.964 84.8487 407.494 86.5565 409.5 88.7634L416.9 82.0366C414.906 79.8435 413.436 78.2013 412.473 77.0941C411.986 76.5336 411.664 76.1513 411.479 75.9203C411.379 75.795 411.372 75.7796 411.41 75.8348C411.423 75.8534 411.514 75.9846 411.622 76.1845C411.675 76.2827 411.78 76.4855 411.884 76.7596C411.955 76.9477 412.2 77.6077 412.2 78.5H402.2ZM409.541 88.808C423.163 103.431 431.685 112.749 435.204 116.854L442.796 110.346C439.115 106.051 430.437 96.5692 416.859 81.992L409.541 88.808ZM435.464 117.136C435.58 117.251 435.522 117.225 435.428 117.036C435.322 116.825 435.2 116.464 435.2 116H445.2C445.2 113.406 443.881 111.409 442.536 110.064L435.464 117.136ZM435.2 116C435.2 115.645 435.243 115.365 435.278 115.188C435.315 115.006 435.356 114.871 435.382 114.794C435.43 114.649 435.462 114.596 435.428 114.664C435.399 114.721 435.34 114.831 435.238 115.003C435.137 115.171 435.006 115.378 434.84 115.627L443.16 121.173C443.615 120.492 444.041 119.798 444.372 119.136C444.592 118.697 445.2 117.474 445.2 116H435.2ZM435.19 115.162C431.959 118.963 425.02 126.11 414.198 136.732L421.202 143.868C431.98 133.29 439.241 125.837 442.81 121.638L435.19 115.162ZM414.216 136.714C410.649 140.179 407.835 143.189 405.878 145.705C404.902 146.961 404.052 148.203 403.424 149.404C402.846 150.51 402.2 152.058 402.2 153.8H412.2C412.2 154.442 411.991 154.602 412.288 154.034C412.536 153.559 412.998 152.839 413.772 151.845C415.315 149.861 417.751 147.221 421.184 143.886L414.216 136.714ZM402.2 153.8C402.2 155.207 402.668 156.4 403.04 157.175C403.447 158.021 403.976 158.846 404.54 159.624C405.67 161.181 407.246 162.965 409.168 164.938C413.031 168.906 418.72 174.074 426.159 180.407L432.641 172.793C425.28 166.526 419.869 161.594 416.332 157.962C414.554 156.135 413.355 154.744 412.635 153.751C412.274 153.254 412.11 152.961 412.054 152.844C411.963 152.656 412.2 153.043 412.2 153.8H402.2ZM426.136 180.388C432.646 185.996 437.823 190.395 441.659 193.574C445.378 196.657 448.093 198.813 449.516 199.718L454.884 191.282C454.107 190.787 451.922 189.093 448.041 185.876C444.277 182.755 439.154 178.404 432.664 172.812L426.136 180.388ZM449.806 199.889C452.016 201.095 453.222 201.842 453.7 202.2L459.7 194.2C458.578 193.358 456.784 192.305 454.594 191.111L449.806 199.889ZM453.854 202.311C455.056 203.143 455.75 203.721 456.089 204.061C456.261 204.232 456.218 204.221 456.105 204.038C456.043 203.938 455.927 203.733 455.822 203.434C455.716 203.133 455.6 202.675 455.6 202.1H465.6C465.6 200.594 465.014 199.432 464.608 198.774C464.17 198.067 463.639 197.468 463.161 196.989C462.2 196.029 460.944 195.057 459.546 194.089L453.854 202.311ZM457.468 198.202L423.868 225.202L430.132 232.998L463.732 205.998L457.468 198.202ZM430.155 225.221L344.955 155.921L338.645 163.679L423.845 232.979L430.155 225.221ZM345.336 156.264C345.189 156.118 345.19 156.076 345.227 156.156C345.245 156.195 345.265 156.251 345.28 156.319C345.294 156.387 345.3 156.45 345.3 156.5H335.3C335.3 159.261 336.507 161.578 338.264 163.336L345.336 156.264ZM345.3 156.5C345.3 156.449 345.304 156.428 345.304 156.432C345.303 156.436 345.299 156.452 345.29 156.473C345.282 156.494 345.274 156.505 345.275 156.504C345.276 156.502 345.292 156.479 345.336 156.436L338.264 149.364C336.337 151.291 335.3 153.759 335.3 156.5H345.3ZM345.081 156.673C354.324 148.636 363.366 140.498 372.209 132.258L365.391 124.942C356.634 133.102 347.676 141.164 338.519 149.127L345.081 156.673ZM372.252 132.217C376.677 127.994 380.072 124.603 382.386 122.079C383.532 120.828 384.499 119.698 385.207 118.732C385.557 118.255 385.923 117.711 386.223 117.139C386.437 116.729 387 115.62 387 114.2H377C377 113.555 377.139 113.085 377.205 112.886C377.28 112.662 377.35 112.526 377.365 112.499C377.389 112.451 377.343 112.545 377.143 112.818C376.751 113.352 376.068 114.172 375.014 115.321C372.928 117.597 369.723 120.806 365.348 124.983L372.252 132.217ZM387 114.2C387 113.204 386.708 112.436 386.606 112.176C386.464 111.812 386.303 111.498 386.177 111.27C385.923 110.81 385.612 110.334 385.302 109.888C384.671 108.977 383.784 107.814 382.686 106.435C380.476 103.66 377.202 99.753 372.891 94.7398L365.309 101.26C369.598 106.247 372.774 110.04 374.864 112.665C375.916 113.986 376.642 114.948 377.085 115.587C377.192 115.741 377.273 115.863 377.332 115.956C377.362 116.002 377.383 116.037 377.399 116.062C377.414 116.088 377.42 116.1 377.42 116.098C377.419 116.098 377.407 116.076 377.388 116.035C377.369 115.997 377.334 115.922 377.293 115.816C377.258 115.728 377 115.096 377 114.2H387ZM372.863 94.7075C371.463 93.1075 362.363 82.7075 345.563 63.5075L338.037 70.0925C354.837 89.2925 363.937 99.6925 365.337 101.293L372.863 94.7075ZM345.336 63.2645C345.306 63.2346 345.386 63.3066 345.469 63.4943C345.558 63.6936 345.6 63.9115 345.6 64.1H335.6C335.6 66.6046 336.661 68.7321 338.264 70.3355L345.336 63.2645ZM345.6 64.1C345.6 64.2836 345.558 64.6134 345.372 64.9861C345.186 65.3587 344.947 65.5898 344.8 65.7L338.8 57.7C336.741 59.2443 335.6 61.5262 335.6 64.1H345.6ZM344.309 66.0251C364.309 54.4251 384.309 42.8251 404.309 31.2251L399.291 22.5748C379.291 34.1748 359.291 45.7748 339.291 57.3748L344.309 66.0251ZM404.293 31.2341C415.583 24.74 424.189 19.8904 430.131 16.6714C433.11 15.058 435.371 13.881 436.945 13.1174C437.739 12.732 438.291 12.485 438.64 12.3451C438.817 12.2739 438.874 12.2582 438.842 12.2677C438.824 12.273 438.739 12.2982 438.604 12.3248C438.492 12.3469 438.198 12.4 437.8 12.4V2.39999C436.951 2.39999 436.244 2.60725 435.985 2.68461C435.612 2.79565 435.245 2.93234 434.916 3.06427C434.252 3.33064 433.461 3.69295 432.58 4.12007C430.804 4.98149 428.39 6.24196 425.369 7.87853C419.311 11.1595 410.617 16.06 399.307 22.5659L404.293 31.2341ZM434.069 10.7281C440.663 18.1216 445.416 23.5692 448.359 27.1009L456.041 20.6991C452.984 17.0308 448.137 11.4784 441.531 4.07191L434.069 10.7281ZM448.399 27.1483C453.083 32.6293 456.542 36.8281 458.814 39.7767C459.958 41.2612 460.74 42.3507 461.215 43.0879C461.457 43.4636 461.557 43.6538 461.58 43.7005C461.709 43.9675 461.3 43.2904 461.3 42.2H471.3C471.3 40.8096 470.744 39.6793 470.579 39.3401C470.308 38.7805 469.968 38.2114 469.623 37.6745C468.922 36.5868 467.942 35.2388 466.736 33.6733C464.308 30.5218 460.717 26.1707 456.001 20.6517L448.399 27.1483ZM608.439 185L613.144 186.691L615.55 180H608.439V185ZM591.939 230.9V235.9H595.455L596.644 232.591L591.939 230.9ZM480.939 230.9H475.939V235.9H480.939V230.9ZM480.939 30.2L479.904 25.3083L475.939 26.147V30.2H480.939ZM527.739 20.3H532.739V14.1316L526.704 15.4082L527.739 20.3ZM527.739 185H522.739V190H527.739V185ZM603.734 183.309L587.234 229.209L596.644 232.591L613.144 186.691L603.734 183.309ZM591.939 225.9H480.939V235.9H591.939V225.9ZM485.939 230.9V30.2H475.939V230.9H485.939ZM481.974 35.0917L528.774 25.1917L526.704 15.4082L479.904 25.3083L481.974 35.0917ZM522.739 20.3V185H532.739V20.3H522.739ZM527.739 190H608.439V180H527.739V190ZM664.15 228.2L662.498 232.919L667.272 234.59L668.888 229.798L664.15 228.2ZM639.85 219.8L638.148 224.501L638.208 224.523L638.269 224.543L639.85 219.8ZM622.45 211.4L617.715 209.794L617.45 210.575V211.4H622.45ZM679.45 43.4L684.185 45.0065L684.189 44.9938L684.193 44.9811L679.45 43.4ZM684.55 30.5L683.202 25.6852L683.084 25.718L682.969 25.7566L684.55 30.5ZM699.55 26L698.23 21.1774L698.128 21.2054L698.026 21.2379L699.55 26ZM728.05 18.2V13.2H727.378L726.73 13.3773L728.05 18.2ZM733.75 27.2L738.493 25.6189L738.447 25.4795L738.392 25.343L733.75 27.2ZM738.85 41L734.168 42.7556L734.174 42.77L734.179 42.7844L738.85 41ZM803.95 211.4L808.693 209.819L808.659 209.716L808.621 209.616L803.95 211.4ZM800.65 214.4L799.18 209.621L799.15 209.63L799.12 209.64L800.65 214.4ZM785.65 220.7L783.256 216.311L783.193 216.345L783.131 216.381L785.65 220.7ZM779.95 223.4L778.576 218.592L778.331 218.663L778.093 218.758L779.95 223.4ZM764.95 228.2L760.283 229.995L761.516 233.2H764.95V228.2ZM762.85 222.2L767.658 220.826L767.62 220.694L767.575 220.564L762.85 222.2ZM755.65 203.3L751.178 205.536L751.218 205.616L751.261 205.694L755.65 203.3ZM749.65 186.5L754.415 184.984L754.412 184.976L749.65 186.5ZM679.45 182.9L674.783 181.105L674.722 181.265L674.671 181.43L679.45 182.9ZM672.85 202.4L668.125 200.764L668.119 200.783L668.112 200.802L672.85 202.4ZM712.45 90.2L717.071 88.2912L712.111 76.2825L707.741 88.5183L712.45 90.2ZM695.95 136.4L691.241 134.718L688.855 141.4H695.95V136.4ZM730.45 136.4V141.4H735.45V136.4H730.45ZM730.45 135.2H735.45V134.319L735.149 133.491L730.45 135.2ZM724.75 120.8L720.096 122.628L720.106 122.653L720.116 122.679L724.75 120.8ZM665.802 223.481C653.806 219.282 645.672 216.47 641.431 215.057L638.269 224.543C642.428 225.93 650.494 228.718 662.498 232.919L665.802 223.481ZM641.552 215.099C635.796 213.014 631.639 211.334 628.974 210.047C627.615 209.391 626.838 208.929 626.47 208.663C626.277 208.523 626.377 208.565 626.572 208.801C626.702 208.958 627.45 209.877 627.45 211.4H617.45C617.45 213.273 618.379 214.586 618.872 215.181C619.429 215.854 620.073 216.377 620.605 216.762C621.687 217.546 623.085 218.309 624.626 219.053C627.761 220.566 632.304 222.386 638.148 224.501L641.552 215.099ZM627.185 213.006L684.185 45.0065L674.715 41.7935L617.715 209.794L627.185 213.006ZM684.193 44.9811C685.586 40.8048 686.676 37.7335 687.475 35.7133C687.881 34.6869 688.168 34.0428 688.346 33.6943C688.442 33.5067 688.44 33.537 688.342 33.6734C688.294 33.7409 688.147 33.9417 687.899 34.1815C687.703 34.3706 687.11 34.9173 686.131 35.2434L682.969 25.7566C681.915 26.1077 681.239 26.7114 680.951 26.9896C680.61 27.3185 680.362 27.6403 680.205 27.861C679.889 28.3036 679.633 28.7683 679.442 29.1432C679.045 29.9196 678.619 30.9131 678.175 32.0367C677.274 34.3165 676.115 37.5952 674.707 41.8189L684.193 44.9811ZM685.898 35.3148C690.958 33.8981 696.016 32.3805 701.074 30.7621L698.026 21.2379C693.084 22.8194 688.142 24.3018 683.202 25.6852L685.898 35.3148ZM700.87 30.8226L729.37 23.0226L726.73 13.3773L698.23 21.1774L700.87 30.8226ZM728.05 23.2C727.314 23.2 726.743 23.0001 726.392 22.8274C726.054 22.6614 725.87 22.4978 725.83 22.4622C725.775 22.4122 725.942 22.5584 726.301 23.1253C727.005 24.2362 727.945 26.151 729.108 29.0569L738.392 25.343C737.155 22.249 735.945 19.6637 734.749 17.7747C734.158 16.8415 733.437 15.8628 732.557 15.0628C731.743 14.3227 730.201 13.2 728.05 13.2V23.2ZM729.007 28.7811C729.444 30.0943 731.191 34.8154 734.168 42.7556L743.532 39.2444C740.509 31.1846 738.856 26.7057 738.493 25.6189L729.007 28.7811ZM734.179 42.7844L799.279 213.184L808.621 209.616L743.521 39.2156L734.179 42.7844ZM799.207 212.981C799.006 212.378 798.94 211.577 799.204 210.747C799.45 209.975 799.869 209.525 800.062 209.35C800.245 209.184 800.317 209.176 800.131 209.266C799.96 209.35 799.657 209.474 799.18 209.621L802.12 219.179C803.634 218.713 805.413 218 806.788 216.75C807.531 216.075 808.313 215.1 808.733 213.779C809.173 212.398 809.094 211.022 808.693 209.819L799.207 212.981ZM799.12 209.64C793.271 211.52 787.974 213.737 783.256 216.311L788.044 225.089C792.126 222.863 796.829 220.88 802.18 219.16L799.12 209.64ZM783.131 216.381C780.828 217.724 779.362 218.368 778.576 218.592L781.324 228.208C783.338 227.632 785.672 226.476 788.169 225.019L783.131 216.381ZM778.093 218.758C774.143 220.338 771.016 221.489 768.676 222.238C767.506 222.612 766.588 222.868 765.898 223.026C765.149 223.197 764.89 223.2 764.95 223.2V233.2C766.833 233.2 769.28 232.544 771.724 231.762C774.384 230.911 777.757 229.662 781.807 228.042L778.093 218.758ZM769.617 226.405C768.631 223.843 767.995 222.009 767.658 220.826L758.042 223.574C758.505 225.191 759.269 227.357 760.283 229.995L769.617 226.405ZM767.575 220.564C764.035 210.337 761.487 203.559 760.039 200.906L751.261 205.694C752.213 207.441 754.465 213.263 758.125 223.836L767.575 220.564ZM760.122 201.064C759.131 199.082 757.247 193.884 754.415 184.984L744.885 188.016C747.653 196.715 749.769 202.718 751.178 205.536L760.122 201.064ZM754.412 184.976C753.557 182.302 752.557 179.898 751.31 178.063C750.164 176.379 747.982 174 744.55 174V184C743.768 184 743.216 183.71 742.975 183.537C742.78 183.398 742.823 183.367 743.04 183.687C743.493 184.352 744.143 185.698 744.888 188.024L754.412 184.976ZM744.55 174H684.25V184H744.55V174ZM684.25 174C682.085 174 680.001 174.67 678.247 176.094C676.572 177.456 675.491 179.265 674.783 181.105L684.117 184.695C684.409 183.935 684.628 183.794 684.553 183.856C684.508 183.892 684.428 183.941 684.331 183.975C684.238 184.007 684.198 184 684.25 184V174ZM674.671 181.43C673.903 183.928 671.736 190.333 668.125 200.764L677.575 204.036C681.164 193.667 683.398 187.072 684.229 184.37L674.671 181.43ZM668.112 200.802L659.412 226.602L668.888 229.798L677.588 203.998L668.112 200.802ZM707.741 88.5183L691.241 134.718L700.659 138.082L717.159 91.8817L707.741 88.5183ZM695.95 141.4H730.45V131.4H695.95V141.4ZM735.45 136.4V135.2H725.45V136.4H735.45ZM735.149 133.491C734.312 131.189 732.375 126.299 729.384 118.921L720.116 122.679C723.125 130.101 724.988 134.811 725.751 136.909L735.149 133.491ZM729.404 118.972C724.995 107.75 720.884 97.5228 717.071 88.2912L707.829 92.1088C711.616 101.277 715.705 111.45 720.096 122.628L729.404 118.972ZM940.162 123.8L936.744 120.151L936.735 120.159L936.726 120.168L940.162 123.8ZM896.662 163.7L893.302 159.997L893.294 160.005L896.662 163.7ZM851.662 224.9L850.828 219.97L850.817 219.972L850.805 219.974L851.662 224.9ZM830.362 228.5L825.362 228.515L825.38 234.399L831.184 233.432L830.362 228.5ZM829.762 31.7L826.44 27.963L824.755 29.4608L824.762 31.7152L829.762 31.7ZM842.362 25.7L844.07 30.3989L844.133 30.3763L844.194 30.352L842.362 25.7ZM865.162 18.5L864.181 13.5971L864.051 13.6231L863.923 13.656L865.162 18.5ZM869.362 17.3L868.149 12.4493L867.963 12.4958L867.781 12.5566L869.362 17.3ZM875.662 18.5L872.461 22.3411L872.489 22.3645L872.517 22.3875L875.662 18.5ZM916.462 51.2L919.617 47.321L919.594 47.3026L919.571 47.2844L916.462 51.2ZM950.062 80L953.518 76.3868L953.508 76.3772L953.498 76.3677L950.062 80ZM874.162 71.3V66.3H869.162V71.3H874.162ZM874.162 124.1H869.162V129.1H874.162V124.1ZM877.462 124.1V129.1H879.272L880.663 127.941L877.462 124.1ZM890.962 113L894.085 116.904L894.137 116.863L894.188 116.82L890.962 113ZM958.862 98.9C958.862 97.6887 959.377 97.0061 959.16 97.382C959.079 97.5216 958.868 97.8434 958.442 98.3883C957.603 99.4616 956.251 100.994 954.315 103.028C950.465 107.072 944.623 112.77 936.744 120.151L943.58 127.449C951.5 120.03 957.508 114.178 961.558 109.922C963.573 107.806 965.183 106.001 966.319 104.549C966.88 103.832 967.41 103.094 967.823 102.377C968.1 101.897 968.862 100.561 968.862 98.9H958.862ZM936.726 120.168C929.369 127.127 914.907 140.393 893.302 159.997L900.022 167.403C921.617 147.807 936.154 134.473 943.598 127.432L936.726 120.168ZM893.294 160.005C885.388 167.21 879.432 172.713 875.444 176.499C873.457 178.386 871.92 179.882 870.864 180.965C870.345 181.497 869.88 181.992 869.521 182.415C869.351 182.615 869.123 182.894 868.91 183.209C868.807 183.361 868.637 183.626 868.475 183.964C868.378 184.168 867.962 185.026 867.962 186.2H877.962C877.962 187.336 877.561 188.144 877.495 188.283C877.363 188.557 877.24 188.743 877.198 188.805C877.109 188.936 877.066 188.979 877.143 188.889C877.278 188.73 877.554 188.428 878.022 187.947C878.941 187.005 880.367 185.614 882.329 183.751C886.241 180.037 892.136 174.59 900.03 167.395L893.294 160.005ZM867.962 186.2V220.4H877.962V186.2H867.962ZM867.962 220.4C867.962 218.003 869.599 216.744 869.748 216.624C870.153 216.299 870.488 216.148 870.521 216.133C870.639 216.078 870.589 216.113 870.212 216.224C869.521 216.429 868.346 216.715 866.603 217.083C863.156 217.811 857.913 218.773 850.828 219.97L852.495 229.83C859.61 228.627 865.017 227.639 868.67 226.867C870.477 226.485 871.965 226.134 873.049 225.813C873.56 225.662 874.175 225.462 874.736 225.201C874.991 225.083 875.493 224.836 876.009 224.422C876.269 224.213 877.962 222.872 877.962 220.4H867.962ZM850.805 219.974C846.223 220.771 839.138 221.968 829.54 223.568L831.184 233.432C840.786 231.832 847.9 230.629 852.518 229.826L850.805 219.974ZM835.362 228.485L834.762 31.6848L824.762 31.7152L825.362 228.515L835.362 228.485ZM833.084 35.437C833.44 35.1198 834.419 34.463 836.411 33.5143C838.315 32.6079 840.853 31.5689 844.07 30.3989L840.653 21.001C837.27 22.2311 834.409 23.3921 832.112 24.4857C829.904 25.537 827.883 26.6802 826.44 27.963L833.084 35.437ZM844.194 30.352C850.56 27.8444 857.955 25.5046 866.401 23.344L863.923 13.656C855.169 15.8954 847.364 18.3555 840.529 21.0479L844.194 30.352ZM866.142 23.4029C867.45 23.1414 869.083 22.6635 870.943 22.0434L867.781 12.5566C866.041 13.1365 864.874 13.4586 864.181 13.5971L866.142 23.4029ZM870.574 22.1507C871.114 22.0157 871.391 22 871.462 22V12C870.333 12 869.209 12.1842 868.149 12.4493L870.574 22.1507ZM871.462 22C871.923 22 872.183 22.1095 872.461 22.3411L878.863 14.6589C876.741 12.8905 874.2 12 871.462 12V22ZM872.517 22.3875C886.129 33.3969 899.741 44.3062 913.352 55.1155L919.571 47.2844C905.983 36.4938 892.395 25.6031 878.806 14.6124L872.517 22.3875ZM913.307 55.079C928.279 67.2567 939.364 76.763 946.626 83.6323L953.498 76.3677C945.96 69.237 934.644 59.5433 919.617 47.321L913.307 55.079ZM946.606 83.6132C951.108 87.9196 954.322 91.4631 956.374 94.2735C957.397 95.6755 958.058 96.7958 958.449 97.6537C958.853 98.5408 958.862 98.9159 958.862 98.9H968.862C968.862 95.2908 966.833 91.6406 964.45 88.3765C961.902 84.8869 958.216 80.8804 953.518 76.3868L946.606 83.6132ZM909.462 98.3C909.462 96.4676 908.821 94.794 908.143 93.4695C907.431 92.0811 906.454 90.6511 905.313 89.2042C903.03 86.3089 899.74 82.9069 895.561 79.0328L888.763 86.3671C892.783 90.0931 895.643 93.0911 897.46 95.3958C898.37 96.5489 898.93 97.4189 899.243 98.0304C899.59 98.706 899.462 98.7324 899.462 98.3H909.462ZM895.561 79.0328C891.412 75.1875 887.935 72.1979 885.174 70.1406C883.8 69.1167 882.497 68.2433 881.302 67.6042C880.284 67.059 878.666 66.3 876.862 66.3V76.3C876.058 76.3 875.827 76.016 876.584 76.4208C877.164 76.7317 878.023 77.2833 879.199 78.1594C881.538 79.9021 884.712 82.6125 888.763 86.3671L895.561 79.0328ZM876.862 66.3H874.162V76.3H876.862V66.3ZM869.162 71.3V124.1H879.162V71.3H869.162ZM874.162 129.1H877.462V119.1H874.162V129.1ZM880.663 127.941C886.657 122.945 891.126 119.272 894.085 116.904L887.838 109.096C884.797 111.528 880.266 115.255 874.261 120.259L880.663 127.941ZM894.188 116.82C898.746 112.97 902.308 109.687 904.769 107.007C905.994 105.674 907.056 104.372 907.841 103.133C908.523 102.058 909.462 100.327 909.462 98.3H899.462C899.462 97.3725 899.838 97.0798 899.395 97.7796C899.055 98.3154 898.43 99.1261 897.404 100.243C895.366 102.463 892.177 105.43 887.736 109.18L894.188 116.82ZM1120.77 37.1L1123.66 41.1759L1128.1 38.0253L1124.58 33.8717L1120.77 37.1ZM1063.77 77.6L1066.54 81.7602L1066.6 81.719L1066.66 81.6759L1063.77 77.6ZM1061.07 79.4L1058.29 75.2397L1058 75.4323L1057.74 75.6629L1061.07 79.4ZM1060.77 87.8L1064.2 84.1614L1063.84 83.8222L1063.42 83.56L1060.77 87.8ZM1112.97 137L1116.81 133.799L1116.61 133.568L1116.4 133.361L1112.97 137ZM1115.07 139.7L1119.28 137.016L1119.26 136.971L1119.23 136.927L1115.07 139.7ZM1115.07 153.5L1110.75 150.981L1110.71 151.043L1110.68 151.106L1115.07 153.5ZM1109.07 160.4L1112.1 164.375L1112.21 164.289L1112.32 164.196L1109.07 160.4ZM1015.47 231.8L1011.86 235.261L1014.95 238.483L1018.5 235.775L1015.47 231.8ZM980.066 194.9L977.14 190.846L972.477 194.211L976.458 198.361L980.066 194.9ZM1043.67 149L1041.09 144.713L1040.91 144.822L1040.74 144.946L1043.67 149ZM1045.77 147.5L1042.51 143.704L1042.37 143.829L1042.23 143.964L1045.77 147.5ZM1045.17 137.9L1048.7 134.364L1048.64 134.304L1048.58 134.246L1045.17 137.9ZM995.066 91.1L991.225 94.3009L991.425 94.5407L991.653 94.7538L995.066 91.1ZM995.066 70.4L991.531 66.8645L991.474 66.9215L991.419 66.9803L995.066 70.4ZM999.566 66.8L1002.43 70.8961L1002.49 70.8584L1002.54 70.8192L999.566 66.8ZM1089.57 0.19999L1093.38 -3.02833L1090.36 -6.60663L1086.59 -3.81922L1089.57 0.19999ZM1117.87 33.0241L1060.87 73.5241L1066.66 81.6759L1123.66 41.1759L1117.87 33.0241ZM1060.99 73.4398C1059.79 74.2397 1058.89 74.8397 1058.29 75.2397L1063.84 83.5603C1064.44 83.1603 1065.34 82.5602 1066.54 81.7602L1060.99 73.4398ZM1057.74 75.6629C1055.61 77.5629 1053.37 80.3228 1053.37 83.9H1063.37C1063.37 84.3068 1063.23 84.4626 1063.33 84.2975C1063.44 84.1115 1063.74 83.7173 1064.39 83.137L1057.74 75.6629ZM1053.37 83.9C1053.37 87.5568 1055.36 90.3178 1058.12 92.04L1063.42 83.56C1063.12 83.3741 1063.14 83.3112 1063.22 83.4545C1063.27 83.5251 1063.31 83.6152 1063.34 83.7141C1063.36 83.8114 1063.37 83.8793 1063.37 83.9H1053.37ZM1057.34 91.4385L1109.54 140.639L1116.4 133.361L1064.2 84.1614L1057.34 91.4385ZM1109.13 140.201C1110.11 141.384 1110.66 142.111 1110.91 142.473L1119.23 136.927C1118.67 136.089 1117.82 135.016 1116.81 133.799L1109.13 140.201ZM1110.85 142.384C1111.78 143.854 1112.17 145.233 1112.17 146.6H1122.17C1122.17 143.167 1121.15 139.946 1119.28 137.016L1110.85 142.384ZM1112.17 146.6C1112.17 147.71 1111.82 149.147 1110.75 150.981L1119.39 156.019C1121.12 153.053 1122.17 149.89 1122.17 146.6H1112.17ZM1110.68 151.106C1109.87 152.585 1108.35 154.429 1105.81 156.604L1112.32 164.196C1115.38 161.571 1117.86 158.815 1119.46 155.894L1110.68 151.106ZM1106.03 156.425L1012.43 227.825L1018.5 235.775L1112.1 164.375L1106.03 156.425ZM1019.07 228.339L983.674 191.439L976.458 198.361L1011.86 235.261L1019.07 228.339ZM982.992 198.954L1046.59 153.054L1040.74 144.946L977.14 190.846L982.992 198.954ZM1046.24 153.287C1047.3 152.65 1048.45 151.892 1049.3 151.036L1042.23 143.964C1042.3 143.897 1042.26 143.943 1042.04 144.106C1041.82 144.257 1041.52 144.459 1041.09 144.713L1046.24 153.287ZM1049.02 151.296C1051.15 149.467 1052.87 146.889 1052.87 143.6H1042.87C1042.87 143.528 1042.88 143.45 1042.9 143.376C1042.91 143.304 1042.94 143.262 1042.94 143.255C1042.94 143.246 1042.86 143.408 1042.51 143.704L1049.02 151.296ZM1052.87 143.6C1052.87 139.937 1051.17 136.834 1048.7 134.364L1041.63 141.436C1042.76 142.566 1042.87 143.263 1042.87 143.6H1052.87ZM1048.58 134.246L998.48 87.4462L991.653 94.7538L1041.75 141.554L1048.58 134.246ZM998.908 87.8991C996.375 84.8596 995.566 82.4551 995.566 80.6H985.566C985.566 85.5449 987.758 90.1404 991.225 94.3009L998.908 87.8991ZM995.566 80.6C995.566 78.5355 996.383 76.3065 998.714 73.8197L991.419 66.9803C987.75 70.8935 985.566 75.4645 985.566 80.6H995.566ZM998.602 73.9355C999.3 73.2372 1000.53 72.2305 1002.43 70.8961L996.699 62.7038C994.605 64.1695 992.833 65.5628 991.531 66.8645L998.602 73.9355ZM1002.54 70.8192L1092.54 4.2192L1086.59 -3.81922L996.592 62.7808L1002.54 70.8192ZM1085.75 3.42831L1116.95 40.3283L1124.58 33.8717L1093.38 -3.02833L1085.75 3.42831Z" fill="white"/>
</svg>
